<svg width="167" height="163" viewBox="0 0 167 163" fill="none" xmlns="http://www.w3.org/2000/svg">
<path d="M42.8411 68.6701C42.4105 66.7915 43.8379 65 45.7653 65H78C79.6569 65 81 66.3431 81 68V110C81 111.657 79.6569 113 78 113H55.3903C53.9916 113 52.7785 112.033 52.4661 110.67L42.8411 68.6701Z" fill="url(#paint0_linear_22_10)"/>
<g filter="url(#filter0_d_22_10)">
<path d="M53 53C53 51.3431 54.3431 50 56 50H70.8621C71.8829 50 72.8337 50.5191 73.3857 51.3777L76.1143 55.6223C76.6663 56.4809 77.6171 57 78.6379 57H117C118.657 57 120 58.3431 120 60V110C120 111.657 118.657 113 117 113H56C54.3431 113 53 111.657 53 110V53Z" fill="url(#paint1_linear_22_10)"/>
</g>
<defs>
<filter id="filter0_d_22_10" x="0" y="0" width="167" height="163" filterUnits="userSpaceOnUse" color-interpolation-filters="sRGB">
<feFlood flood-opacity="0" result="BackgroundImageFix"/>
<feColorMatrix in="SourceAlpha" type="matrix" values="0 0 0 0 0 0 0 0 0 0 0 0 0 0 0 0 0 0 127 0" result="hardAlpha"/>
<feOffset dx="-3"/>
<feGaussianBlur stdDeviation="25"/>
<feComposite in2="hardAlpha" operator="out"/>
<feColorMatrix type="matrix" values="0 0 0 0 0.0156863 0 0 0 0 0.0509804 0 0 0 0 0.180392 0 0 0 1 0"/>
<feBlend mode="normal" in2="BackgroundImageFix" result="effect1_dropShadow_22_10"/>
<feBlend mode="normal" in="SourceGraphic" in2="effect1_dropShadow_22_10" result="shape"/>
</filter>
<linearGradient id="paint0_linear_22_10" x1="43.5" y1="66.5" x2="79.5" y2="112" gradientUnits="userSpaceOnUse">
<stop stop-color="#5698EE"/>
<stop offset="0.473958" stop-color="#3855DF"/>
<stop offset="1" stop-color="#4B47D2"/>
</linearGradient>
<linearGradient id="paint1_linear_22_10" x1="53" y1="52.5" x2="119.999" y2="113.001" gradientUnits="userSpaceOnUse">
<stop stop-color="#5698EE"/>
<stop offset="0.505208" stop-color="#3855DF"/>
<stop offset="1" stop-color="#4B47D2"/>
</linearGradient>
</defs>
</svg>
